<?xml version="1.0" encoding="utf-8"?>
<!-- Generator: Adobe Illustrator 27.8.1, SVG Export Plug-In . SVG Version: 6.00 Build 0)  -->
<svg version="1.1" xmlns="http://www.w3.org/2000/svg" xmlns:xlink="http://www.w3.org/1999/xlink" x="0px" y="0px"
	 viewBox="0 0 64 64" style="enable-background:new 0 0 64 64;" xml:space="preserve">
<style type="text/css">
	.st0{display:none;}
	.st1{display:inline;opacity:0.87;}
	.st2{fill:#231F20;}
	.st3{opacity:0.51;fill:none;stroke:#231F20;stroke-width:3;stroke-linejoin:round;stroke-miterlimit:10;}
	.st4{fill:none;stroke:#231F20;stroke-width:3;stroke-linejoin:round;stroke-miterlimit:10;}
	.st5{display:none;fill:none;stroke:#231F20;stroke-width:3;stroke-linejoin:round;stroke-miterlimit:10;}
	.st6{fill:none;stroke:#000000;stroke-width:3;stroke-linecap:round;stroke-linejoin:round;stroke-miterlimit:10;}
</style>
<g id="Layer_1" class="st0">
	<g class="st1">
		<path class="st2" d="M61,3v58H3V3H61 M64,0H0v64h64V0L64,0z"/>
	</g>
	<path class="st3" d="M59.5,23c-1.2,0-5.8-0.2-5.9,0c-0.2,0.2,0,32,0,32H10.5c0,0,0.2-31.8,0-32c-0.2-0.2-4.7,0-5.9,0
		C3.3,23,32,7.6,32,7.6S60.7,23,59.5,23z"/>
</g>
<g id="Layer_2">
	<path class="st4" d="M32,6.9"/>
	<polygon class="st5" points="59.4,23 53.5,23 53.5,55 10.5,55 10.5,23 4.5,23 32,7.6 	"/>
	<g>
		<line class="st6" x1="11" y1="32" x2="53" y2="32"/>
		<polyline class="st6" points="31.9,53 11,32 32,10.9 		"/>
	</g>
</g>
</svg>
