<svg xmlns="http://www.w3.org/2000/svg" viewBox="0 0 64 64" fill="none" stroke="#fff" stroke-width="3"><circle cx="32" cy="32" r="27.3"/><g stroke-miterlimit="10"><path d="M29.6 24.9c-.6-.5-1.4-.8-2.2-.8-1.4-.1-3.7 0-4.5.6-2.2 1.7-3.5 4.4-3.8 5.1-.2.6-1.5 9.5 7 6.5 2.1-.7 3.4.3 3.2 1.2-.1.7-.8 1.2-.6 1.8.1.6.4 1.3 1.1 1.8.9.7.6 2.2.2 3.2-.3.8-.3 1.6.1 2.3l1.4 4.2c.6 1.3 3.1 2.7 4.2 1.8.6-.5 1.3-1.3 1.8-2.6 1-2.4 2.5-3.5 3.1-4.3.4-.5-.3-1.5-.3-2.1.6-5.8 5-3.5 6.1-9 .1-.4-2.9.5-4.4-.9-.3-.3-1.2-1.1-1.4-1.8-.6-1.9-2-5.8-4.2-6-1.4-.1-2.4.1-3.2.3-.9.2-1.9 0-2.6-.5l-1-.8z"/><path d="m58.3 24.7-1.7 6.7-1.7-5.5s-2.9-4.1-4.8-4.1c-1.1 0-.1 4.8-.1 4.8L45.5 30s-3.6-4.7-3.9-7c-.4-2.3-4.7-2.9-4.7-2.9L34 21.3l-3.5-1.5 1.3-2.9-5-.3-2.3 2.9-2.9 1.2-2.7-4 2.3-1.6 2.3-.4.6-1.9-1.7-1.6 3.2-2.9 2.5.7 3.1 1.2 2.4-1.3.3-3 .3-1.1M15.3 53.7l-2.1-7 1.2-2.1-.5-5.4-2.5-3.8H8.6L5.8 33l-1.6.2" stroke-linejoin="round"/></g></svg>
