<?xml version="1.0" encoding="utf-8"?>
<!-- Generator: Adobe Illustrator 27.8.1, SVG Export Plug-In . SVG Version: 6.00 Build 0)  -->
<svg version="1.1" xmlns="http://www.w3.org/2000/svg" xmlns:xlink="http://www.w3.org/1999/xlink" x="0px" y="0px"
	 viewBox="0 0 64 64" style="enable-background:new 0 0 64 64;" xml:space="preserve">
<style type="text/css">
	.st0{display:none;}
	.st1{display:inline;opacity:0.87;}
	.st2{fill:#231F20;}
	.st3{opacity:0.51;fill:none;stroke:#231F20;stroke-width:3;stroke-linejoin:round;stroke-miterlimit:10;}
	.st4{fill:none;stroke:#000000;stroke-width:3;stroke-linecap:round;stroke-linejoin:round;stroke-miterlimit:10;}
</style>
<g id="Layer_1" class="st0">
	<g class="st1">
		<path class="st2" d="M61,3v58H3V3H61 M64,0H0v64h64V0L64,0z"/>
	</g>
	<path class="st3" d="M59.5,23c-1.2,0-5.8-0.2-5.9,0c-0.2,0.2,0,32,0,32H10.5c0,0,0.2-31.8,0-32c-0.2-0.2-4.7,0-5.9,0
		C3.3,23,32,7.6,32,7.6S60.7,23,59.5,23z"/>
</g>
<g id="Layer_7" class="st0">
	
		<image style="display:inline;overflow:visible;opacity:0.57;" width="1248" height="1002" xlink:href="../../Screenshot 2024-02-16 at 8.34.14 PM.png"  transform="matrix(4.127698e-02 0 0 4.127698e-02 6.7432 9.3702)">
	</image>
</g>
<g id="Layer_3">
	<path class="st4" d="M46,23.7c6.5,0.1,11.4-0.1,11.4-0.1c0.2,7.3,1,24.6-0.5,27.7c-0.9,1.8-2.8,2.4-4.6,2.1
		c-9-1.8-7.5-39.9-7.5-39.9H6.3c0,0-1,32.5,6,37.8c1.2,0.9,2.5,1.3,5.7,1.7c7.8,0.9,22.6,0.4,35.8,0.4"/>
	<rect x="12.4" y="17.9" class="st4" width="14.2" height="10.3"/>
	<line class="st4" x1="14.2" y1="34" x2="39.2" y2="34"/>
	<line class="st4" x1="15.1" y1="40.8" x2="40.1" y2="40.8"/>
	<line class="st4" x1="17.5" y1="47.6" x2="42.5" y2="47.6"/>
</g>
</svg>
