<svg xmlns="http://www.w3.org/2000/svg" viewBox="0 0 64 64" fill="none" stroke="#282828" stroke-width="3" stroke-linejoin="round" stroke-miterlimit="10">
    <path d="M32 10c-12.15 0-22 9.85-22 22s9.85 22 22 22c5.74 0 10.96-2.22 14.83-5.83l4.24-4.24c3.61-3.87 5.83-9.09 5.83-14.83 0-12.15-9.85-22-22-22zm-11 22c-3.31 0-6-2.69-6-6s2.69-6 6-6 6 2.69 6 6-2.69 6-6 6zm8-12c-3.31 0-6-2.69-6-6s2.69-6 6-6 6 2.69 6 6-2.69 6-6 6zm12 0c-3.31 0-6-2.69-6-6s2.69-6 6-6 6 2.69 6 6-2.69 6-6 6zm8 12c-3.31 0-6-2.69-6-6s2.69-6 6-6 6 2.69 6 6-2.69 6-6 6z"/>
</svg>
